<svg width="18" height="18" viewBox="0 0 18 18" fill="none" xmlns="http://www.w3.org/2000/svg">
<mask id="mask0_1509_16932" style="mask-type:alpha" maskUnits="userSpaceOnUse" x="-1" y="2" width="19" height="14">
<path fill-rule="evenodd" clip-rule="evenodd" d="M13.1251 6.7501H13.5001C15.9751 6.7501 17.9251 8.7751 17.9251 11.2501C17.9251 13.7251 15.9001 15.7501 13.4251 15.7501H6.6751C3.6001 15.7501 0.900103 13.6501 0.150103 10.6501C-0.299897 8.9251 0.000103384 7.1251 0.900103 5.5501C1.8751 4.0501 3.3001 2.9251 5.1001 2.4001C6.8251 1.9501 8.6251 2.2501 10.2001 3.1501C11.5501 3.9751 12.6001 5.2501 13.1251 6.7501ZM6.7501 14.2501H13.5001C15.1501 14.2501 16.5001 12.9751 16.5001 11.3251C16.5001 9.6751 15.1501 8.3251 13.5001 8.3251H12.6001C12.2251 8.3251 11.9251 8.0251 11.8501 7.7251C11.2501 5.3251 9.0751 3.7501 6.7501 3.7501C6.3001 3.7501 5.8501 3.8251 5.4751 3.9001C4.1251 4.2001 3.0001 5.0251 2.2501 6.3001C1.5001 7.5751 1.2751 8.9251 1.6501 10.3501C2.2501 12.6001 4.3501 14.2501 6.7501 14.2501Z" fill="white"/>
</mask>
<g mask="url(#mask0_1509_16932)">
<rect width="18" height="18" fill="#EFEFEF"/>
</g>
</svg>
