<svg width="18" height="18" viewBox="0 0 18 18" fill="none" xmlns="http://www.w3.org/2000/svg">
<mask id="mask0_1509_16968" style="mask-type:alpha" maskUnits="userSpaceOnUse" x="0" y="2" width="19" height="14">
<path fill-rule="evenodd" clip-rule="evenodd" d="M17.6435 4.68186L17.633 4.63289C17.3864 3.64777 16.6318 2.86978 15.6546 2.59333C15.0647 2.44877 13.9549 2.3636 12.3964 2.30923C11.6528 2.28329 10.8574 2.26664 10.0622 2.2574C9.78406 2.25416 9.52572 2.25208 9.29376 2.25093C9.15426 2.25023 9.05429 2.25 9.00043 2.25C8.94646 2.25 8.84638 2.25025 8.70675 2.25102C8.47464 2.25228 8.21614 2.25456 7.93782 2.25811C7.14214 2.26824 6.34625 2.28649 5.602 2.31492C4.03845 2.37466 2.9262 2.46814 2.35666 2.62046C1.3691 2.89978 0.614451 3.67777 0.367878 4.66289C0.113109 6.06621 -0.00635675 7.44007 0.000442963 8.81621C-0.00825713 10.1943 0.111217 11.5786 0.357345 12.9431C0.645735 13.9692 1.39597 14.7117 2.3525 14.9734C2.9262 15.1269 4.03845 15.2203 5.602 15.2801C6.34625 15.3085 7.14214 15.3268 7.93782 15.3369C8.21614 15.3404 8.47464 15.3427 8.70675 15.344C8.84638 15.3447 8.94646 15.345 9.00043 15.345C9.05441 15.345 9.15449 15.3447 9.29412 15.344C9.52623 15.3427 9.78472 15.3404 10.063 15.3369C10.8587 15.3268 11.6546 15.3085 12.3989 15.2801C13.9624 15.2203 15.0747 15.1269 15.6442 14.9745C16.6318 14.6952 17.3864 13.9172 17.633 12.9321C17.8859 11.539 18.0053 10.1756 18.0004 8.8098C18.0091 7.43071 17.8897 6.04637 17.6435 4.68186ZM12.3441 3.80832C13.7868 3.85865 14.8489 3.94016 15.2725 4.04359C15.6996 4.16492 16.0506 4.52176 16.1722 4.97532C16.3986 6.24006 16.5085 7.52293 16.5004 8.80779C16.505 10.0899 16.3935 11.3624 16.1673 12.6169C16.0618 13.0318 15.7064 13.3981 15.2463 13.5283C14.839 13.6372 13.7793 13.7262 12.3416 13.7812C11.6116 13.8091 10.8279 13.827 10.0439 13.837C9.76941 13.8405 9.51453 13.8428 9.28593 13.844C9.14913 13.8448 9.05176 13.845 9.00043 13.845C8.9491 13.845 8.85174 13.8448 8.71494 13.844C8.48633 13.8428 8.23146 13.8405 7.95692 13.837C7.17301 13.827 6.38931 13.8091 5.65927 13.7812C4.2216 13.7262 3.16191 13.6372 2.7442 13.5255C2.29795 13.4033 1.94466 13.0537 1.81675 12.6046C1.6038 11.4033 1.49229 10.1113 1.50042 8.81721C1.49408 7.5244 1.60558 6.24213 1.83353 4.9781C1.9391 4.56321 2.29447 4.19686 2.75461 4.06667C3.16191 3.95782 4.2216 3.86875 5.65927 3.81383C6.38931 3.78593 7.17301 3.76797 7.95692 3.75799C8.23146 3.75449 8.48633 3.75224 8.71494 3.75099C8.85174 3.75025 8.9491 3.75 9.00043 3.75C9.05188 3.75 9.14936 3.75023 9.28629 3.75091C9.51504 3.75205 9.77007 3.7541 10.0448 3.7573C10.8292 3.76642 11.6134 3.78283 12.3441 3.80832ZM7.68369 11.9169C7.18371 12.2013 6.56293 11.8402 6.56293 11.265V6.36C6.56293 5.78482 7.18371 5.42371 7.68369 5.70805L11.9962 8.16055C12.5018 8.44811 12.5018 9.17689 11.9962 9.46445L7.68369 11.9169ZM8.06293 7.64932L10.1083 8.8125L8.06293 9.97568V7.64932Z" fill="white"/>
</mask>
<g mask="url(#mask0_1509_16968)">
<rect width="18" height="18" fill="#EFEFEF"/>
</g>
</svg>
