<svg width="14" height="14" viewBox="0 0 14 14" fill="none" xmlns="http://www.w3.org/2000/svg">
<mask id="mask0_1509_16884" style="mask-type:alpha" maskUnits="userSpaceOnUse" x="0" y="1" width="14" height="12">
<path fill-rule="evenodd" clip-rule="evenodd" d="M11.6668 1.75H2.3335C1.34183 1.75 0.583496 2.50833 0.583496 3.5V10.5C0.583496 11.4917 1.34183 12.25 2.3335 12.25H11.6668C12.6585 12.25 13.4168 11.4917 13.4168 10.5V3.5C13.4168 2.50833 12.6585 1.75 11.6668 1.75ZM2.3335 2.91667H11.6668C11.9002 2.91667 12.0752 3.03333 12.1918 3.26667L7.00016 6.88333L1.8085 3.26667C1.92516 3.03333 2.10016 2.91667 2.3335 2.91667ZM1.75016 10.5C1.75016 10.85 1.9835 11.0833 2.3335 11.0833H11.6668C12.0168 11.0833 12.2502 10.85 12.2502 10.5V4.60833L7.35016 8.05C7.2335 8.10833 7.11683 8.16667 7.00016 8.16667C6.8835 8.16667 6.76683 8.10833 6.65016 8.05L1.75016 4.60833V10.5Z" fill="white"/>
</mask>
<g mask="url(#mask0_1509_16884)">
<rect width="14" height="14" fill="#EFEFEF"/>
</g>
</svg>
