<svg width="18" height="18" viewBox="0 0 18 18" fill="none" xmlns="http://www.w3.org/2000/svg">
<mask id="mask0_1509_16951" style="mask-type:alpha" maskUnits="userSpaceOnUse" x="4" y="0" width="11" height="18">
<path fill-rule="evenodd" clip-rule="evenodd" d="M14.2207 4.5C14.2207 4.95 13.9216 5.25 13.4729 5.25H11.2297V6.75H13.4729C13.6972 6.75 13.9216 6.75 14.0711 6.975C14.2207 7.2 14.2954 7.425 14.2207 7.65L13.4729 10.65C13.3981 11.025 13.0991 11.25 12.7252 11.25H11.2297V16.5C11.2297 16.95 10.9306 17.25 10.4819 17.25H7.49097C7.04233 17.25 6.74323 16.95 6.74323 16.5V11.25H5.24774C4.7991 11.25 4.5 10.95 4.5 10.5V7.5C4.5 7.05 4.7991 6.75 5.24774 6.75H6.74323V5.25C6.74323 2.775 8.76214 0.75 11.2297 0.75H13.4729C13.9216 0.75 14.2207 1.05 14.2207 1.5V4.5ZM12.5009 8.25H10.4819C10.0333 8.25 9.7342 7.95 9.7342 7.5V5.25C9.7342 4.425 10.4072 3.75 11.2297 3.75H12.7252V2.25H11.2297C9.58466 2.25 8.23872 3.6 8.23872 5.25V7.5C8.23872 7.95 7.93962 8.25 7.49097 8.25H5.99549V9.75H7.49097C7.93962 9.75 8.23872 10.05 8.23872 10.5V15.75H9.7342V10.5C9.7342 10.05 10.0333 9.75 10.4819 9.75H12.127L12.5009 8.25Z" fill="white"/>
</mask>
<g mask="url(#mask0_1509_16951)">
<rect width="18" height="18" fill="#EFEFEF"/>
</g>
</svg>
