<svg width="14" height="14" viewBox="0 0 14 14" fill="none" xmlns="http://www.w3.org/2000/svg">
<mask id="mask0_1509_16908" style="mask-type:alpha" maskUnits="userSpaceOnUse" x="0" y="0" width="14" height="14">
<path fill-rule="evenodd" clip-rule="evenodd" d="M13.4408 6.08696C13.8074 6.02609 14.0517 5.72174 13.9906 5.41739C13.6852 2.61739 11.4247 0.365217 8.55323 0C8.24776 0 7.88119 0.243478 7.88119 0.547826C7.88119 0.852174 8.12557 1.15652 8.43104 1.21739C10.7526 1.52174 12.5244 3.28696 12.7688 5.53913C12.8298 5.84348 13.0742 6.08696 13.3797 6.08696H13.4408ZM10.2028 8.15652C10.6915 8.33913 11.2414 8.46087 11.7912 8.52174C12.7077 8.64348 13.3797 9.43478 13.3797 10.3478V12.1739C13.3797 12.6609 13.1353 13.087 12.8298 13.4522C12.5244 13.8174 12.0356 14 11.5469 14H11.3636C9.40856 13.8174 7.45353 13.1478 5.80398 12.0522C4.27662 11.0783 2.93254 9.73913 1.95502 8.21739C0.916418 6.57391 0.183284 4.62609 0 2.67826C0 2.1913 0.122189 1.70435 0.427662 1.33913C0.733134 0.973913 1.1608 0.730435 1.64955 0.669565H1.83284H3.66567C4.58209 0.669565 5.37632 1.33913 5.49851 2.25217C5.5596 2.8 5.68179 3.34783 5.86507 3.83478C6.10945 4.50435 5.92617 5.29565 5.43741 5.78261L5.00975 6.2087C5.74288 7.36522 6.7204 8.27826 7.8201 9.0087L8.24776 8.58261C8.79761 8.09565 9.53074 7.91304 10.2028 8.15652ZM12.1578 12.1739V10.3478C12.1578 10.0435 11.9134 9.8 11.6691 9.73913L11.669 9.73913C11.0581 9.61739 10.4472 9.49565 9.83622 9.25217C9.59184 9.13043 9.34746 9.19131 9.16418 9.37391L8.36995 10.1652C8.18666 10.4087 7.88119 10.4087 7.63681 10.287C5.98726 9.37391 4.64318 8.03478 3.72677 6.3913C3.60458 6.14783 3.66567 5.84348 3.84895 5.66087L4.64318 4.93044C4.76537 4.74783 4.82647 4.50435 4.76537 4.26087C4.52099 3.71304 4.33771 3.04348 4.27662 2.43478C4.21552 2.13043 3.97114 1.88696 3.66567 1.88696H1.83284C1.64955 1.88696 1.46627 2.0087 1.34408 2.13043C1.28298 2.25217 1.22189 2.37391 1.22189 2.55652C1.40517 4.32174 2.01612 6.02609 2.99363 7.54783C3.91005 8.94783 5.07084 10.1652 6.47602 11.0174C8.00338 11.9913 9.71403 12.6 11.4858 12.7826C11.7301 12.7826 11.8523 12.7217 11.9745 12.6C12.0967 12.4783 12.1578 12.3565 12.1578 12.1739ZM8.43104 3.71304C8.12557 3.65217 7.88119 3.34783 7.94229 2.98261C8.00338 2.67826 8.30885 2.43478 8.67542 2.49565C10.1417 2.8 11.3025 3.89565 11.5469 5.35652C11.608 5.66087 11.4247 6.02609 11.0581 6.08696H10.9359C10.6304 6.08696 10.3861 5.90435 10.325 5.6C10.1417 4.62609 9.40856 3.89565 8.43104 3.71304Z" fill="white"/>
</mask>
<g mask="url(#mask0_1509_16908)">
<rect width="14" height="14" fill="#EFEFEF"/>
</g>
</svg>
